<?xml version="1.0" encoding="UTF-8"?>
<svg width="288" height="520.38" overflow="hidden" style="left:-0.5px;position:relative" _ngcontent-ng-c3022224118="" data-target="#divisional-results" data-toggle="modal" preserveAspectRatio="xMinYMin" version="1.1" viewBox="0 0 332.07 600" xmlns="http://www.w3.org/2000/svg">
<desc _ngcontent-ng-c3022224118="">Created with Raphaël 2.3.0 and Mapael undefined (https://www.vincentbroute.fr/mapael/)</desc>
<a _ngcontent-ng-c3022224118="">
<path class="area" d="m72.076 457.22 2.456 6.548-3.503 0.637-0.037-0.221s-6.008-2.719-10.909 4.372c-1.321 1.898-5.454-8.189-5.454-8.189l-12.007 11.453-4.357-2.732h-4e-3l-6.98 2.151 1.489 6.942c-1.71-0.606-4.043-1.178-6.511-0.897l-0.114 0.046c-0.413-1.162-0.753-2.128-0.976-2.777-0.245-0.745-0.539-1.804-0.844-3.037h-4e-3c-0.369-1.47-0.767-3.199-1.162-5.007-0.463-2.067-2.895-14.305-2.895-14.305l-0.735-2.568-2.542-8.894 4.915-4.906c0.177-0.717-0.176-2.864-0.726-5.409l0.022 0.023c0.581 0.444 1.385 1.095 2.07 1.766 0.808 0.79 1.47 1.624 1.47 2.218 0 0.296-9e-3 0.568-0.022 0.858-0.055 1.33-0.205 2.659-0.205 2.664s0.35 0.599 0.876 1.471c0.018 0.044 0.018 0.044 0 0 0 0 3.54-2.345 5.082-2.563 1.234-0.179 3.735 0.202 4.683 0.365-0.045 0.745 2.569 0.038 1.924 2.492-0.067 0.246-0.172 1.053-0.172 1.199l5.718 0.785 6.548-0.409 3.272 4.51 2.046 0.41 3.271-4.09 5.047-2.446 5.659-2.15 0.345 0.906 5.718 1.108 1.242 2.237 0.255 0.992 1.369 5.429 0.01 0.055-6.666 2.818 1.338 6.145z" cursor="pointer" fill="#808080" stroke="#fff" stroke-linejoin="round" stroke-opacity=".8" _ngcontent-ng-c3022224118="" data-id="district-Colombo" data-toggle="popover" data-type="area"/>
</a>
<a _ngcontent-ng-c3022224118="">
<path class="area" d="m68.419 412.27 4.905 6.139-2.155 0.901-2.528 4.654 2.138 7.166-0.672 5.479 0.114 0.279-1.738 0.655-5.663 2.154-5.046 2.446-3.273 4.084-2.041-0.41-3.272-4.496-6.552 0.409-5.713-0.781c0-0.148 0.012-0.299 0.022-0.444 0.041-0.263 0.076-0.513 0.14-0.758 0.655-2.45-1.969-1.746-1.924-2.491 0.01-0.101 0.064-0.223 0.16-0.367-0.1 0.153-0.15 0.271-0.16 0.367-0.944-0.167-3.448-0.544-4.682-0.371-1.543 0.223-4.851 2.428-4.851 2.428l-0.231 0.135c-0.523-0.871-0.876-1.47-0.876-1.47s0.154-1.33 0.208-2.669c0.013-0.29 0.023-0.563 0.023-0.854 0-0.598-0.662-1.433-1.471-2.222-0.689-0.66-1.483-1.316-2.069-1.767l-0.027-0.021-0.018-0.061c-1.134-5.172-3.076-11.992-3.076-11.992l-1.099-14.736 2.732 11.457s2.183 0.545 3.271-1.097c1.085-1.631-4.909-10.909-3.271-14.181 0.427-0.864 0.558-2.291 0.49-4.01 1.462 0.374 3.881 0.96 6.021 1.263 1.54 0.21 2.923 0.288 3.709 0.023 0.785-0.256 1.733-0.932 2.776-1.764v-4e-3c0.699-0.552 1.457-1.184 2.228-1.804 1.688-1.324 3.499-2.603 5.219-2.984 3.684-0.816 9.42-0.816 11.053-0.816 1.639 0 8.178 2.463 8.178 2.463l5.736-4.094v-0.411c0.158-0.049 0.39-0.016 0.671 0.079 1.893 0.717 6.054 4.452 6.054 4.452l4.32 3.235-2.863 7.776-1.638 3.681-3.259 5.35z" cursor="pointer" fill="#808080" stroke="#fff" stroke-linejoin="round" stroke-opacity=".8" _ngcontent-ng-c3022224118="" data-id="district-Gampaha" data-toggle="popover" data-type="area"/>
</a>
<a _ngcontent-ng-c3022224118="">
<path class="area" d="m97.47 522.31-1.792 0.261-7.215 5.464-0.817 2.459-2.456 4.916-4.496-3.281-4.511-2.459-9.815 4.913-8.191-3.679-3.681-3.69-2.454-4.497-6.135-2.049-6.839 2.804c-0.54-1.696-1.038-3.223-1.347-4.165-1.085-3.269-2.732-18.002-2.732-18.002v-5e-3s-1.887-5.035-4.034-10.818c-1.72-4.638-3.608-9.765-4.806-13.136l0.11-0.043c2.473-0.284 4.805 0.291 6.515 0.896l-1.488-6.94 6.979-2.152 4.362 2.733 12.007-11.457s4.133 10.088 5.454 8.191c4.905-7.093 10.909-4.366 10.909-4.366l0.036 0.22-0.949 0.172 0.773 6.141 2.041 9.003 3.272 7.381 2.464 5.729 11.866 5.317-0.576 2.395-1.475 7.832 7.374 8.999 1.647 4.913z" cursor="pointer" fill="#808080" stroke="#fff" stroke-linejoin="round" stroke-opacity=".8" _ngcontent-ng-c3022224118="" data-id="district-Kalutara" data-toggle="popover" data-type="area"/>
</a>
<a _ngcontent-ng-c3022224118="">
<path class="area" d="m201.39 403.25-6.554 2.879-1.089 0.356-6.681-1.182-7.775 3.675-0.24-0.472-1.398-2.792-5.317-0.821-9.008-9.817-2.859 2.456h-5e-3l1.231 8.597-7.361 8.999-1.23 5.313h-15.138l-3.276 1.648-3.422 3.139 5.463 5.046-0.407 2.043 1.647 5.728-0.831 5.709-10.083-3.485-2.595-3.038-2.043-3.269-3.689-2.859-1.224-4.09-2.864-6.556-1.43-1.212-1.248-1.046 3.499-1.423 4.084-1.638 5.224-1.876 5.009-1.804 0.821-2.059-4.909-7.354-0.405-3.271-4.515-9.006-3.335-1.04-1.366-0.427-2.922-4.407-1.589-1.701 0.214-0.194 4.497-2.863s1.638-4.1 2.863-5.323c1.221-1.221 6.13 0.816 6.135 0.816 9e-3 -5e-3 5.323-9.402 6.544-10.22 1.225-0.82 2.047 1.639 2.047 1.639l0.445 0.411 2.767 4.581 6.529 4.902h5e-3l8.25 0.734 0.822-4.911 1.642-3.271 1.538-3.894 1.911-0.119 1.457-0.095 3.68 2.047 3.272 2.042 0.426-0.336v8e-3l3.264-2.531 4.09-2.047 5.441 0.142 7.291 0.595 2.65-2.555 3.851 1.818 1.067-0.4 2.613 6.943 0.836 13.505 0.119 6.511 3.564 13.122z" cursor="pointer" fill="#808080" stroke="#fff" stroke-linejoin="round" stroke-opacity=".8" _ngcontent-ng-c3022224118="" data-id="district-Kandy" data-toggle="popover" data-type="area"/>
</a>
<a _ngcontent-ng-c3022224118="">
<path class="area" d="m197.39 334.49-0.797 10.712-3.194 6.074 0.321 7.251 0.17 3.617 0.379 1.003-1.067 0.407-3.849-1.823-2.646 2.56-7.292-0.604-5.44-0.133-4.089 2.039-3.264 2.532-0.427 0.331-3.271-2.033-3.68-2.048-1.457 0.096-1.911 0.119-1.538 3.876-1.643 3.271-0.821 4.91-8.25-0.735-6.534-4.9-2.769-4.583-0.443-0.414s-0.822-2.45-2.047-1.635l4.088-4.369c-4.357-4.363 0.817-18.954 0.817-18.954l-4.084-3.68-4.089-9.003-2.455-9.415-2.859-3.686-1.021-4.279-0.631-2.678s19.644-2.863 22.917-8.19c3.271-5.313 2.864-11.449 4.497-12.684 1.633-1.23 11.871-6.953 11.871-6.953 1.628 3.68 16.77 6.544 16.359 9.417-0.405 2.864-2.454 4.906-2.858 6.13-0.404 1.238 0.815 8.607-1.227 10.652-2.044 2.046-6.139 7.36-6.139 7.36s-0.182 0.586-0.095 0.771c0.603 1.372 0.91 3.125 1.319 4.963 0.817 3.681 0 9.814 3.277 10.224 3.273 0.406 13.915-5.729 13.915-5.729s7.765 1.013 13.865 1.85l-1.908 8.363z" cursor="pointer" fill="#808080" stroke="#fff" stroke-linejoin="round" stroke-opacity=".8" _ngcontent-ng-c3022224118="" data-id="district-Matale" data-toggle="popover" data-type="area"/>
</a>
<a _ngcontent-ng-c3022224118="">
<path class="area" d="m194.4 414.71-0.815 5.313-2.043 6.96-2.045 4.9-2.589 3.967-3.545 5.446-4.905-1.637-3.272 4.084-0.815 1.642-0.818 3.272-4.088 1.637-2.851-0.992 2.418 5.252 1.222 4.848 0.851 4.805-0.575 3.777-0.24 1.542-0.848 1.126-0.391-0.295s-9.402 1.638-11.857 2.454c-2.464 0.816-15.138 0.816-15.138 0.816l-6.962-2.878s-2.504-0.244-5.082-0.606c-2.083-0.29-4.229-0.66-5.141-1.023-1.534-0.601-3.294-3.07-4.089-4.254l0.114-6.711-0.064-2.929-3.78-3.465-3.82-4.36-1.448-5.681v-4.095l6.948-6.544 3.697 2.865 2.038 3.268 2.591 3.062 10.088 3.484 0.826-5.729-1.643-5.728 0.404-2.043-5.463-5.048 3.421-3.144 3.281-1.648h15.138l1.225-5.311 7.361-8.998-1.226-8.593 2.863-2.461 9.004 9.82 5.318 0.817 1.632 3.269 7.781-3.679 6.681 1.187-0.136 0.044 0.787 8.195z" cursor="pointer" fill="#808080" stroke="#fff" stroke-linejoin="round" stroke-opacity=".8" _ngcontent-ng-c3022224118="" data-id="district-NuwaraEliya" data-toggle="popover" data-type="area"/>
</a>
<a _ngcontent-ng-c3022224118="">
<path class="area" d="m116.27 543.18c-0.408 1.226-2.041 0.813-2.041 0.813s-15.547-7.766-14.322-4.086c1.226 3.68 6.962 9.007 7.778 10.238 0.808 1.225 0 4.084 0 4.084l-0.104 0.014-6.857 0.4c-4e-3 0.036-1.634 9.42 0.409 13.5 2.041 4.088 7.777 8.186 6.552 9.824-0.644 0.853-1.625 1.373-2.418 1.674-0.714 0.269-1.271 0.364-1.271 0.364h-3.272v6.953l-2.863 5.724-0.318 0.912c-5.809-2.018-18.464-6.47-20.542-7.724-0.54-0.327-0.931-0.64-1.199-0.958-1.143-1.26-0.444-2.323-0.444-2.323s-3.267-1.633-4.906-2.173c-1.338-0.439-4.134-3.086-6.003-4.919v-8e-3c-0.414-0.41-0.795-0.782-1.09-1.077-1.638-1.637-14.729-16.365-15.818-19.634-0.232-0.7-0.613-2.083-1.067-3.839-1.683-6.496-4.387-17.992-4.387-17.992s-0.096-0.3-0.255-0.8c-0.517-1.628-1.724-5.445-2.768-8.662l6.839-2.805 6.134 2.043 2.456 4.493 3.681 3.689 8.189 3.679 3.966-1.862h5e-3l2.982-1.402 2.859-1.647 4.514 2.452 4.498 3.281 2.455-4.918 0.816-2.449 2.864-2.454 4.352-3.013 21.631 11.625-0.204 0.391-2.864 2.048c-2.863 2.043 2.455 5.313 2.033 6.544z" cursor="pointer" fill="#808080" stroke="#fff" stroke-linejoin="round" stroke-opacity=".8" _ngcontent-ng-c3022224118="" data-id="district-Galle" data-toggle="popover" data-type="area"/>
</a>
<a _ngcontent-ng-c3022224118="">
<path class="area" d="m147.92 593.56c-3.104 0.6-6.561 1.04-6.561 1.04l-13.632 4.904v-1.637l-10.373-0.557-4.356 1.646-5.451-2.734s-0.552-2.72-2.186-3.268c-1.634-0.56-4.905 1.627-4.905 1.627s-1.14-0.389-2.914-0.998l3.181-6.638v-6.951h3.272s0.558-0.086 1.275-0.368c0.79-0.298 1.774-0.82 2.415-1.673 1.224-1.629-4.511-5.736-6.553-9.821-2.047-4.084-0.409-13.499-0.409-13.499l6.862-0.399c0.271-1.126 0.907-2.874 0.1-4.098-0.822-1.231-6.553-6.556-7.779-10.234-1.229-3.682 14.317 4.084 14.317 4.084s1.639 0.411 2.047-0.817c0.408-1.229-4.906-4.497-2.047-6.544 2.863-2.046 3.068-2.437 3.068-2.437l2.251 1.222 17.185-6.562-1.64 6.562s5.732 0.816 9.003 0.816c2.288 0 1.784 4.805 1.262 7.685-0.045 0.312-0.104 0.596-0.158 0.846v0.015c-3.068 3.194-10.297 13.649-9.824 15.994 0.539 2.742 5.994 6.563 5.994 6.563l2.187 3.271 3.817 3.269-2.183 1.633c0.017 0.019 2.723 2.741 0.548 4.918-1.643 1.626-6.004 4.907-6.004 4.907l3.273 2.727 4.366 2.194 0.548 3.271 4e-3 0.041z" cursor="pointer" fill="#808080" stroke="#fff" stroke-linejoin="round" stroke-opacity=".8" _ngcontent-ng-c3022224118="" data-id="district-Matara" data-toggle="popover" data-type="area"/>
</a>
<a _ngcontent-ng-c3022224118="">
<path class="area" d="m301.94 516.21c-1.211 1.48-2.351 2.888-2.937 3.658-1.625 2.18-10.914 10.369-16.902 14.733-6.004 4.361-8.191 4.361-12.547 8.181-4.365 3.819-9.82 7.636-15.274 9.822-5.458 2.187-9.275 7.643-9.275 7.643l-2.731 0.534c-2.718 0.551-21.271 4.919-22.903 6.01-1.633 1.085-9.824 5.998-9.824 5.998s-7.636 0.55-11.992 0l-0.019-0.02 8e-3 0.02c-4.364-0.54-12.551 2.191-12.551 2.191l-1.09-1.642c-1.081-1.636-3.271 5.457-3.271 5.457s-7.087 2.709-9.819 3.272c-2.726 0.527-4.903-0.563-6.538-0.563-1.633 0-3.271 4.367-4.909 6.003-1.121 1.124-1.997 0.71-2.423 0.334-0.204-0.172-0.309-0.334-0.309-0.334s-2.178 3.817-4.356 4.908c-0.812 0.396-2.519 0.805-4.357 1.151l-9e-3 -0.059-0.548-3.271-4.37-2.187-3.267-2.733s0.24-0.164 0.631-0.454c1.174-0.871 3.729-2.828 5.372-4.452 2.179-2.182-0.554-4.912-0.554-4.912l2.188-1.642-3.821-3.268-2.183-3.272s-5.454-3.813-5.994-6.548c-0.473-2.347 6.756-12.802 9.824-15.997v-8e-3c0.486-0.513 0.862-0.827 1.089-0.904 1.633-0.549 18.001 7.628 18.001 7.628s2.178 0 3.813 0.555c1.646 0.545 8.73 1.094 11.464 2.183 2.725 1.089 7.626 1.089 7.626 1.089h5e-3l-1.639-10.909s10.37-5.459 12.013-5.994c1.63-0.554 1.63-4.369 2.72-6.558 1.1-2.182 15.281-3.271 19.102-2.722 3.817 0.549 8.173 9.814 10.36 10.914 2.188 1.085 8.187-1.64 8.187-1.64s20.19-6.553 24.546-8.734c4.376-2.174 7.644-7.643 8.731-9.816 1.09-2.182 5.461-3.814 8.732-5.454 3.275-1.637 7.091-4.37 7.091-4.37l14.736 6.01 0.173 0.169z" cursor="pointer" fill="#808080" stroke="#fff" stroke-linejoin="round" stroke-opacity=".8" _ngcontent-ng-c3022224118="" data-id="district-Hambantota" data-toggle="popover" data-type="area"/>
</a>
<a _ngcontent-ng-c3022224118="">
<path class="area" d="m30.089 18.701s8.725-1.088 9.275 1.633c0.545 2.728-0.553 5.459 1.633 4.915 2.183-0.549 3.277-3.277 3.277-3.277l5.999 8.731-1.094 1.634-6.543-2.183-1.639 2.183-5.454-3.817s3.271-4.909 1.638-4.365c-1.638 0.545-5.459 0-5.459 0l-1.633-5.454m21.822 10.364s0 4.909-1.643 7.092c-1.638 2.179 7.092-3.276 7.092-3.276v-2.728l-5.449-1.088m-26.188 0s0 7.092 1.638 9.82c1.633 2.727 6.544 1.638 6.544 1.638l0.549-8.187s-2.732-0.543-5.881-0.966c-3.154-0.416-2.85-2.305-2.85-2.305m-9.275 5.455c3.821 4.366 4.369-3.271 4.369-3.271h-2.187c-2.182-2e-15 -2.182 3.271-2.182 3.271m-14.18 4.91s-1.094 8.182 3.271 10.908c4.366 2.732 7.093 0.55 6.549-1.089-0.545-1.637 0.544-4.365-1.638-4.365-2.183 0-8.182-5.454-8.182-5.454m16.907-16.368 3.277 2.188c3.271 2.178 1.089-3.278 1.089-3.278l-3.272-1.638-1.094 2.728m-16.994 16.159s-1.088 8.182 3.282 10.91c4.36 2.731 7.092 0.548 6.547-1.09-0.548-1.638 0.545-4.366-1.638-4.366-2.188 0-8.191-5.454-8.191-5.454m155.56 24.559-16.917-12.547-9.088-8.763-6.186-5.967-16.731-13.85-14.916-22.153-3.816 1.09-0.399-0.019-10.513-0.531-1.09 3.821s6.543 4.366 9.275 3.816c0.83-0.167 1.847-0.126 2.872 0 0.907 0.114 1.821 0.309 2.605 0.495 1.257 0.295 2.16 0.603 2.16 0.603l11.998 16.363 11.789 7.965 3.485 5.663c-0.054-0.032-0.345-0.214-0.807-0.504-2.89-1.793-12.524-7.751-13.918-8.213-0.032-0.01-0.082-0.041-0.136-0.077-0.109-0.063-0.25-0.173-0.417-0.332-0.074-0.068-0.16-0.141-0.25-0.236-0.322-0.295-0.699-0.693-1.143-1.179-0.178-0.187-0.364-0.39-0.549-0.604-0.799-0.898-1.739-1.988-2.741-3.176-0.368-0.436-0.754-0.894-1.135-1.357-0.39-0.468-0.781-0.94-1.171-1.416-0.208-0.241-0.403-0.481-0.598-0.722-0.137-0.168-0.283-0.344-0.428-0.513-0.253-0.317-0.512-0.621-0.757-0.939-0.014-9e-3 -0.014-9e-3 -0.022-0.018-0.259-0.317-0.519-0.64-0.773-0.957-0.389-0.472-0.766-0.949-1.138-1.412-0.254-0.317-0.504-0.626-0.748-0.921-1.171-1.47-2.252-2.827-3.128-3.93h-4e-3 4e-3c-0.407-0.503-0.762-0.957-1.07-1.348-0.15-0.185-0.277-0.353-0.4-0.503-0.539-0.69-0.853-1.089-0.853-1.089s-5.482 0.459-9.329 0.522c-0.25 9e-3 -0.486 0.018-0.712 9e-3 -0.114 9e-3 -0.219 9e-3 -0.328 9e-3 -3.821 0-4.369-7.637-4.369-7.637l-3.399-0.654-10.782-2.069s-4.906 2.723-6.543 3.271c-1.589 0.528-6.794-1.514-7.08-1.628 0.169 0.236 0.169 0.236 0 0l-9e-3 -9e-3s-4.919 6.003-4.919 7.641c0 1.634 2.731 4.356 2.731 4.356l0.605 1.204 2.668 5.349 3.816-1.097 2.26 2.118 6.471 6.073 10.908 5.454-7.091-9.277 1.601-1.986c-4e-3 -4e-3 -4e-3 -9e-3 -9e-3 -9e-3 5e-3 0 5e-3 5e-3 9e-3 5e-3l2.767-3.463h5.991l5.468-4.91 4.357 1.638h4e-3 -4e-3l-8.182 4.905-0.55 3.282-3.816-2.193-2.732 2.193 2.732 4.904 7.642 4.361 2.173-2.173-0.54-4.371 3.821 2.183 15.828 10.914 13.645 9.815 0.046-0.027 4.315-2.696 2.732 1.085 2.183-2.183 0.676 0.463 0.086-0.118-0.086 0.123 6.411 4.451 7.57 0.799 1.025 0.993 8.309 8.019-10.36-0.54-11.453-7.637-3.816 1.084-3.821-3.271-2.732 1.09-3.271 4.915-5.451 2.187-2.731-1.639s-10.91 3.273-11.45 1.09c-0.548-2.188 2.728-2.732 2.728-2.732l-2.188-2.184 2.733-1.637-10.374-6.544-7.628-2.182-13.641-7.093-2.704 1.728 10.89 5.365 9.815 12.546s-2.178 5.463-4.905 6.553c-2.732 1.085-12.546 4.906-13.096 7.089-0.549 2.181-1.084 9.824 1.09 9.824 2.182 0 4.914 3.271 4.914 3.271l0.54 13.096s-0.368 1.19-0.922 2.892c1.852 0.045 5.959 0.126 9.248 0.026 2.079-0.067 3.84-0.209 4.497-0.467 2.047-0.817 2.864-2.456 2.864-2.456s-3.271-6.139 0-7.777c3.276-1.633 14.321-3.271 15.547-3.271 1.225 0 11.054 1.638 12.683 0.408 1.638-1.225 2.454-4.088 4.501-4.497 2.043-0.408 6.552 0.409 8.594-2.042 2.047-2.464 4.906-7.369 6.544-6.961 1.634 0.408 5.323 4.088 6.553 3.272 1.225-0.821 6.952-4.501 6.952-4.501l7.772-0.817 0.21-0.187-4.293-4.719 4.906 2.723 0.539-2.184z" cursor="pointer" fill="#808080" stroke="#fff" stroke-linejoin="round" stroke-opacity=".8" _ngcontent-ng-c3022224118="" data-id="district-Jaffna" data-toggle="popover" data-type="area"/>
</a>
<a _ngcontent-ng-c3022224118="">
<path class="area" d="m170.38 140.02c0.019 0.04 0.036 0.086 0.061 0.136-0.021-0.049-0.043-0.096-0.061-0.136zm23.373-11.314 5.452 2.723-10.91-18.551-3.814-1.633s-2.734 0.549-4.372-1.638c-1.632-2.183-0.536-5.454-0.536-5.454l8.183 3.271-8.732-21.272-2.734 0.548v5.455l-8.18-6.003 0.554-4.906 7.626 2.723-0.88-1.053-14.942-18.038v3.821l7.642 9.276-4.904-2.733-6.618-7.279-0.208 0.187-7.773 0.817s-5.726 3.68-6.952 4.502c-1.225 0.816-4.92-2.864-6.553-3.273-1.638-0.412-4.497 4.497-6.544 6.961-2.045 2.451-6.552 1.634-8.594 2.042-2.046 0.409-2.863 3.273-4.501 4.497-1.633 1.23-11.458-0.408-12.683-0.408-1.221 0-12.266 1.638-15.547 3.272-3.271 1.637 0 7.777 0 7.777s-0.817 1.639-2.864 2.455c-0.657 0.259-2.418 0.4-4.496 0.468-3.29 0.099-7.397 0.018-9.248-0.027-1.375 4.179-3.912 11.448-5.074 11.839-1.633 0.535-3.28 6.539-3.28 6.539s-6.545 11.462-9.269 13.095c-2.731 1.639-12.555 7.093-12.555 7.093l1.097 5.454s-1.633 13.641-1.633 16.364c0 2.732 2.183 15.278 2.183 15.278s-2.174 16.894-5.355 21.736l17.756 4.044s4.089-6.139 2.863-9.003c-1.224-2.863-3.68-11.871-0.821-10.233 2.863 1.638 8.191 6.553 13.097 4.099 3.857-1.943 10.282-6.663 13.817-7.185 0.957-0.135 1.702 0.032 2.137 0.636 2.047 2.859 9.42 14.73 9.42 14.73s0.41 6.961 3.273 6.135c1.638-0.467 2.604-0.94 3.362-1.48 0.568-0.408 1.026-0.867 1.544-1.384 1.224-1.225 9.006-17.184 12.683-17.184 3.679 0 11.87 1.23 11.87 1.23s24.954-14.326 21.272-18.415c-3.684-4.088-11.045-11.05-6.952-11.457 4.084-0.41 8.177 2.863 11.459 2.046 2.771-0.69 12.628-7.864 17.041-10.773 0.789-0.522 1.401-0.903 1.773-1.088 2.15-1.077 16.272-2.788 19.697-3.195l-1.024-5.809-3.272-3.272 2.729-3.821 3.29 5.454zm-153.92 2.171-3.277 3.271s-12.547-14.725-17.456-15.818c-4.911-1.09-14.731-3.817-14.731-3.817l2.183-4.365 15.275-0.545 8.185 5.454 7.089 5.999 2.732 2.732-1.639 1.633s-5.999-6.543-5.999-4.365c0 2.187 0 2.732 1.638 3.825 1.634 1.085 6 5.996 6 5.996" cursor="pointer" fill="#808080" stroke="#fff" stroke-linejoin="round" stroke-opacity=".8" _ngcontent-ng-c3022224118="" data-id="district-Mannar" data-toggle="popover" data-type="area"/>
</a>
<a _ngcontent-ng-c3022224118="">
<path class="area" d="m323.49 363.81h-0.011l-2.925 1.03h-0.013l-0.137 0.051-0.101 0.035v-6.545c0-1.628-6.003-15.816-6.003-15.816l-1.797-4.042-4.742-10.7 1.638-0.546s3.068 4.736 6.162 9.844c3.036 5.008 6.101 10.366 6.386 11.983 0.446 2.678 1.249 11.553 1.543 14.706zm-6.353 4.741c-1.421 1.061-5.932 4.326-9.574 6.478-1.717 1.007-3.245 1.77-4.161 1.919-3.272 0.535-3.272 3.271-3.272 0.535 0-2.723 5.449-10.91-1.641-12.547-7.09-1.633-18.006-3.27-18.006-3.27s-1.433-0.518-3.311-1.394c-3.595-1.668-8.873-4.656-9.238-7.881-0.54-4.907-0.54-8.182-0.54-8.182s-9.273-4.914-10.37-7.092c-1.091-2.183-4.905-8.191-4.905-8.191l-15.139-5.051s-0.817-11.052-0.817-12.684c0-1.629 2.044-9.819 4.502-12.678 2.465-2.87 7.777-1.232 10.235-2.87 2.442-1.633-2.047-7.36-4.502-11.866-2.469-4.497 4.086-20.456 4.086-22.906 0-2.464-2.042-12.28-2.042-12.28v-0.018c5.102-0.504 14.72-0.095 16.788 0l1.624 7.251 2.187 7.088-0.555 5.455-5.449-12.007-3.269-0.536 1.637 5.454-6.004-1.647s-1.091 2.732 1.637 4.38c2.739 1.633 6.555 3.262 6.555 3.262l4.901 6.003 3.821-6.003s1.634 13.641 2.182 15.823c0.551 2.178 4.913 2.187 4.913 2.187l0.55 2.723 3.816-0.549v4.929s-1.638 2.181-4.366 3.271c-2.735 1.089-1.637 4.37-1.637 4.37l3.813 10.361-3.813 1.085 0.549 2.731 7.627-1.09s-2.719-9.274-4.907-12.009c-2.183-2.729 5.453-6.541 5.453-6.541l5.454 2.178s-1.085 1.098-4.907 4.369c-3.819 3.265 4.37 10.356 4.37 10.356l3.813-0.55 4.912 8.73s6.538 2.179 7.09 4.37c0.264 1.047-0.353 2.469-1.063 3.666-0.77 1.293-1.657 2.324-1.657 2.324l-6.554-7.092-7.64-2.729-3.271 4.906h-5e-3 5e-3l-0.55 3.816 10.917-1.103 2.177 4.372 6.004 4.36 0.626 4.374v5e-3l0.461 3.266s0.543-2.72 3.275-3.81c2.724-1.093 4.356 14.185 4.356 14.185s-1.091 5.998 0 8.187c0.344 0.69 1.456 2.985 2.829 5.807z" cursor="pointer" fill="#808080" stroke="#fff" stroke-linejoin="round" stroke-opacity=".8" _ngcontent-ng-c3022224118="" data-id="district-Batticaloa" data-toggle="popover" data-type="area"/>
</a>
<a _ngcontent-ng-c3022224118="">
<path class="area" d="m328.52 443.45-4.355 25.108s-7.089 19.083-8.737 21.277c-1.623 2.183 0 3.268-1.623 6.539-1.652 3.284-7.1 14.194-7.1 14.194s-2.494 2.945-4.705 5.627l-0.207-0.17-14.736-6.004s0.278-4.226 0.568-8.807c0.262-4.443 0.521-9.22 0.521-10.826 0-3.269 1.099-58.915 1.099-58.915l-13.646-4.373s-1.638-4.911-3.271-8.73c-0.223-0.521-0.24-1.071-0.122-1.633 0.846-3.564 7.751-7.632 7.765-7.642-0.029-0.065-7.64-20.739-8.191-22.907-0.55-2.173 0-13.085-0.55-15.819-0.54-2.724-15.817 7.639-15.817 7.639s-0.542 3.265-3.271 5.457c-2.733 2.183-6.005 6.55-6.005 6.55l0.551 7.63s-2.178 1.634-4.364 1.634c-2.184 0-5.994-3.811-5.994-3.811-1.097-2.441-6.279-6.544-7.918-9.82-1.636-3.269-0.819-24.549-0.819-24.549s0.816-4.902-2.456-7.361c-3.274-2.46-15.554 6.539-19.638 6.539-4.085-5e-3 -4.902-7.364-4.902-11.457 0-3.449-2.849-3.64-3.729-3.621-0.159 0.011-0.26 0.021-0.26 0.021l0.796-10.712 1.919-8.381c3.382 0.46 6.258 0.871 6.992 1.02 2.038 0.407 14.317 6.54 14.317 6.54s9.4 4.512 11.458 2.059c2.042-2.466 4.905-11.867 4.905-11.867l15.138 5.047s3.812 6.003 4.901 8.19c1.099 2.18 10.374 7.092 10.374 7.092s0 3.279 0.534 8.178c0.359 3.219 5.65 6.208 9.244 7.881 1.884 0.876 3.305 1.387 3.305 1.387s10.92 1.634 18.011 3.271c7.092 1.633 1.642 9.819 1.642 12.547 0 2.729 0 0 3.271-0.54 0.917-0.15 2.437-0.907 4.161-1.923v-6e-3c3.644-2.144 8.151-5.416 9.575-6.475 2.923 6.014 6.992 14.396 6.992 14.396l1.09-3.272s-2.729-7.091-2.729-11.457c0-3.447-1.37-3.484-1.943-3.348l2.927-1.032h9e-3c0.063 0.697 0.099 1.112 0.099 1.112s3.282 8.741 6.004 12.011c1.168 1.398 1.743 5.923 1.914 10.902 0.235 6.593-0.206 13.954-0.833 15.823-1.088 3.276-2.722 2.188-2.722 2.188l-1.031 2.033-3.348 6.679 7.091-3.27s-1.085 7.091-0.536 9.271c0.537 2.175-1.09 3.261-2.732 3.818-1.638 0.55 1.091 6.007 1.091 6.007s2.179-0.564 2.734 1.624c0.545 2.187-1.089 6.553-3.82 8.191-2.726 1.637 1.086 3.27 1.112 3.246z" cursor="pointer" fill="#808080" stroke="#fff" stroke-linejoin="round" stroke-opacity=".8" _ngcontent-ng-c3022224118="" data-id="district-Ampara" data-toggle="popover" data-type="area"/>
</a>
<a _ngcontent-ng-c3022224118="">
<path class="area" d="m265.21 248.57c-2.06-0.091-11.683-0.5-16.786 0-1.042 0.104-1.891 0.245-2.459 0.426-3.688 1.231-10.633 14.321-13.092 13.918-2.45-0.414-1.633-8.6-5.324-13.918-3.68-5.323-13.088-2.859-19.226-4.088-3.26-0.659-7.206-4.075-10.751-7.824-2.338-2.454-4.487-5.045-6.14-7.083-0.569-0.694-1.083-1.339-1.527-1.879-3.681-4.497 4.907-10.627 7.365-17.997 2.454-7.36-7.779-16.368-8.883-21.086-1.1-4.724-3.398-20.644-3.398-20.644s7.376-13.5 4.511-15.137c-2.864-1.643-13.905-6.144-16.359-9.003-1.526-1.788-2.263-3.086-2.59-3.821 0.778-0.521 1.403-0.903 1.77-1.088 2.151-1.076 16.272-2.787 19.698-3.195l0.611 3.466 1.877 0.172 0.012 5e-3 4.115 0.373 0.549-4.92 2.19-0.536 3.269 4.906s-3.277 3.272-1.086 3.817c2.175 0.54 3.813 1.637 3.813 1.637l8.189 9.82 1.085-2.731 6.556 12.547v2.187l3.819 2.182 4.906 7.093 6.539 8.727-1.089 7.092 2.729 7.096-1.639 1.639-2.727-2.731-1.639 7.636-2.729-2.182-4.901-2.183-5.454 4.365 2.725 3.816 6.479-1.837 3.896 2.927s-2.734 2.731 0 4.366c2.723 1.638 9.813-0.55 9.813-0.55l3.271 3.272 4.367-3.272s-7.634-2.173-5.454-4.356c2.184-2.183 7.091-4.37 7.091-4.37l1.635 3.82 2.19-2.182 3.811 21.819-4.901-6.004s-0.314 3.975-0.024 5.576c0.234 1.357 0.716 2.596 1.662 3.163 2.729 1.633 4.366 2.183 4.366 2.183l3.269 14.571z" cursor="pointer" fill="#808080" stroke="#fff" stroke-linejoin="round" stroke-opacity=".8" _ngcontent-ng-c3022224118="" data-id="district-Trincomalee" data-toggle="popover" data-type="area"/>
</a>
<a _ngcontent-ng-c3022224118="">
<path class="area" d="m135.91 360-4.089 4.369c-1.226 0.818-6.544 10.229-6.544 10.229s-4.918-2.052-6.139-0.833c-1.226 1.231-2.864 5.329-2.864 5.329l-4.709 3.059-4.125-4.407-3.032-1.528s-1.434 1.644-2.963 3.494c-1.539 1.838-3.172 3.886-3.58 4.7-0.404 0.814-1.837 2.147-3.163 3.273-1.335 1.126-2.559 2.042-2.559 2.042l-4.171 1.493-11.793 4.233-4.316-3.234s-4.17-3.744-6.058-4.451c-0.277-0.106-0.508-0.146-0.667-0.087v0.409l-5.736 4.098s-6.544-2.457-8.177-2.457c-1.638 0-7.37 0-11.053 0.821-1.716 0.368-3.536 1.647-5.22 2.979l-0.1-0.122s-1.969-9.359-2.859-16.408c-0.248-2.044-0.417-3.89-0.417-5.269 0-2.008-0.04-6.763-0.1-12.256-0.081-7.991-0.195-17.563-0.259-22.484v-0.019l0.781-0.023s4.089-1.228 4.089-2.454c0-1.238-1.23-2.463 0.408-3.271 1.635-0.821 4.906-3.28 4.906-3.28l0.816-6.544s4.497-14.732 8.596-16.776c4.097-2.046 7.364-4.507 8.181-6.959 0.822-2.45 0-6.131 4.097-6.952 2.696-0.535 4.507-1.969 5.418-2.881 0.472-0.472 0.717-0.809 0.717-0.809s3.68-13.081 1.221-15.137c-2.454-2.047-2.454-2.864-2.454-4.905 0-1.126-0.119-5.746-0.65-9.788l0.246-0.028s9.81 0.816 11.866 2.047c2.047 1.225 30.689 13.49 31.915 16.363 1.224 2.864 0.408 13.096 2.862 13.914 1.411 0.476 2.828 0.947 3.858 0.947l0.635 0.69c1.638 4.088-1.22 13.908-1.22 13.908l-0.15 0.247c2.233 1.421 4.237 3.035 4.237 3.035l0.636 2.672 1.016 4.283 2.864 3.679 2.45 9.418 4.034 8.883 0.06 0.121 4.084 3.682c0-1e-3 -5.174 14.592-0.826 18.945z" cursor="pointer" fill="#808080" stroke="#fff" stroke-linejoin="round" stroke-opacity=".8" _ngcontent-ng-c3022224118="" data-id="district-Kurunegala" data-toggle="popover" data-type="area"/>
</a>
<a _ngcontent-ng-c3022224118="">
<path class="area" d="m69.223 287.03s-0.241 0.336-0.717 0.812c-0.907 0.909-2.723 2.343-5.418 2.883-4.097 0.816-3.276 4.496-4.097 6.951-0.817 2.446-4.09 4.905-8.178 6.957-4.098 2.043-8.599 16.775-8.599 16.775l-0.817 6.544s-3.267 2.443-4.906 3.275c-1.633 0.811-0.408 2.037-0.408 3.271 0 1.232-4.088 2.458-4.088 2.458l-0.781 0.018v0.025c0.064 4.926 0.177 14.491 0.259 22.481 0.05 5.492 0.1 10.251 0.1 12.258 0 1.378 0.163 3.226 0.417 5.267 0.89 7.057 2.863 16.415 2.863 16.415l0.096 0.12c-0.772 0.622-1.525 1.248-2.233 1.803-1.039 0.83-1.983 1.502-2.777 1.763-0.78 0.267-2.164 0.189-3.703-0.024-2.137-0.301-4.56-0.891-6.021-1.257-0.186-4.757-1.879-11.591-2.678-14-0.281-0.85-0.499-2.16-0.649-3.615-0.444-4.117-0.436-9.481-0.436-9.481l-3.28-11.99-1.089-10.365s3.267 9.821 5.454 13.093c0.708 1.062 0.612-0.22 0.169-2.433h4e-3c-0.944-4.642-3.439-13.38-3.439-13.38s0-11.461 0.538-14.186c0.191-0.992-0.321-4.005-1.066-7.43-1.302-6.009-3.29-13.305-3.29-13.305l-9.824-44.19s-0.548-4.915 0.55-9.825c1.089-4.905-0.55-8.186-0.55-8.186l3.821-3.271 4.365-12.547 4.357-4.906-2.722 11.997 1.638 5.456s-0.55 3.271-3.273 6.003c-2.731 2.731 0 2.731 0 2.731l-2.187 9.815 3.272 7.637-1.642 1.639c-1.63 1.633 0.553 8.186 2.187 9.819 1.638 1.638 6.004 1.098 6.004 1.098s1.088 2.178 0 8.182c-1.095 6.003-1.643 22.916-1.643 22.916h3.276s-1.633-14.74-0.545-13.095c0.567 0.858 1.729-4.534 2.637-10.12 0.826-5.114 1.439-10.382 1.184-11.163-0.553-1.633-7.097-10.36-7.097-10.36s2.722-1.647 3.817-3.271c1.088-1.639 1.637-10.374 2.187-12.547 0.54-2.187-1.094-8.191-3.816-8.191-2.732 0 5.994-9.82 8.177-12.543 2.186-2.731-0.545-6.008-1.085-8.734-0.549-2.728 5.454-12.548 5.454-12.548l-0.548-11.449s3.271-1.647 7.091-3.271c0.419-0.177 0.817-0.586 1.198-1.185l17.758 4.048s3.271 5.314 3.68 7.361c0.412 2.042-9.812 17.592-12.683 20.451-2.819 2.814 3.48 18.315 3.68 18.818l8e-3 9e-3c0 0.99 8.791 3.313 13.473 4.602 1.126 0.309 2.01 0.558 2.483 0.717 1.097 0.363 1.797 3.281 2.214 6.579 0.526 4.044 0.649 8.659 0.649 9.784 0 2.047 0 2.863 2.455 4.91 2.45 2.051-1.23 15.127-1.23 15.127z" cursor="pointer" fill="#808080" stroke="#fff" stroke-linejoin="round" stroke-opacity=".8" _ngcontent-ng-c3022224118="" data-id="district-Puttalam" data-toggle="popover" data-type="area"/>
</a>
<a _ngcontent-ng-c3022224118="">
<path class="area" d="m197.31 210.12c-2.453 7.37-11.04 13.5-7.359 18.002 0.438 0.536 0.964 1.18 1.524 1.879-0.696 1.325-4.351 8.109-7.667 9.58-3.679 1.642-6.139 2.045-8.998 2.862-5.246 1.499-7.279 6.136-8.912 8.336-0.059-0.345-0.095-0.557-0.095-0.557l1.221-1.226s-5e-3 0-5e-3 5e-3l-1.221 1.221s0.041 0.212 0.095 0.557c0.195 1.339 0.646 4.692 0.319 5.986-0.414 1.634-6.953 20.052-5.315 23.732 0 0-10.232 5.727-11.87 6.953-1.635 1.239-1.226 7.368-4.498 12.688-3.267 5.331-22.915 8.186-22.915 8.186s-2.015-1.603-4.239-3.03l0.145-0.24s2.863-9.825 1.225-13.914l-0.64-0.688c0.559 0 1.004-0.145 1.257-0.509-0.253 0.364-0.693 0.509-1.257 0.509-1.021 0-2.445-0.477-3.857-0.95-2.454-0.816-1.637-11.049-2.863-13.912-1.225-2.868-29.868-15.139-31.913-16.363-2.052-1.231-11.867-2.047-11.867-2.047l-0.245 0.028c-0.418-3.299-1.112-6.217-2.214-6.581-0.473-0.158-1.357-0.408-2.478-0.717l-5e-3 5e-3c-4.683-1.289-13.473-3.612-13.473-4.602l-9e-3 -9e-3c-0.195-0.489-6.498-16.004-3.681-18.818 2.864-2.864 13.088-18.409 12.679-20.451-0.408-2.047-3.68-7.365-3.68-7.365s4.089-6.14 2.864-9.003c-1.225-2.864-3.681-11.871-0.817-10.234 2.859 1.639 8.191 6.554 13.096 4.099 3.852-1.942 10.273-6.663 13.817-7.184 0.958-0.141 1.698 0.027 2.138 0.631 2.047 2.864 9.42 14.735 9.42 14.735s0.409 6.956 3.268 6.13c1.638-0.463 2.604-0.935 3.366-1.475h-4e-3c0.573-0.408 1.026-0.867 1.547-1.384 1.221-1.226 9.003-17.185 12.683-17.185 3.676 0 11.867 1.226 11.867 1.226s24.953-14.322 21.272-18.41c-3.68-4.088-11.04-11.05-6.952-11.458 4.084-0.409 8.177 2.863 11.458 2.042 2.773-0.685 12.633-7.86 17.042-10.768 0.331 0.73 1.067 2.032 2.595 3.815 2.443 2.864 13.494 7.361 16.358 9.008 2.864 1.634-4.51 15.138-4.51 15.138h4e-3s2.297 15.923 3.399 20.643c1.107 4.718 11.342 13.726 8.9 21.084z" cursor="pointer" fill="#808080" stroke="#fff" stroke-linejoin="round" stroke-opacity=".8" _ngcontent-ng-c3022224118="" data-id="district-Anuradhapura" data-toggle="popover" data-type="area"/>
</a>
<a _ngcontent-ng-c3022224118="">
<path class="area" d="m250.9 295.64c-2.457 1.639-7.774 0-10.233 2.863s-4.502 11.051-4.502 12.688c0 1.628 0.815 12.68 0.815 12.68s-2.857 9.406-4.899 11.87c-2.056 2.45-11.458-2.057-11.458-2.057s-12.279-6.134-14.316-6.542c-0.732-0.146-3.61-0.558-6.997-1.012-6.101-0.836-11.794-1.575-13.868-1.854 0 5e-3 -10.644 6.138-13.914 5.728-3.276-0.408-2.46-6.543-3.276-10.224-0.409-1.846-0.718-3.589-1.321-4.964-0.086-0.182-0.181-0.373-0.281-0.546l0.367-0.225s4.103-5.314 6.145-7.36c2.038-2.044 0.815-9.412 1.221-10.637 0.406-1.23 2.455-3.271 2.865-6.135 0.412-2.873-14.726-5.736-16.364-9.416-1.633-3.681 4.91-22.099 5.318-23.732 0.321-1.294-0.123-4.647-0.318-5.986 1.635-2.2 3.667-6.838 8.912-8.337 2.864-0.816 5.317-1.219 8.998-2.862 3.319-1.471 6.969-8.255 7.671-9.584 1.657 2.038 3.791 4.628 6.134 7.083 3.535 3.749 7.481 7.165 10.745 7.824 6.143 1.229 15.547-1.235 19.228 4.088 3.686 5.318 2.869 13.504 5.327 13.918 2.459 0.403 9.401-12.688 13.095-13.918 0.571-0.181 1.418-0.322 2.46-0.427v0.024s2.035 9.81 2.035 12.274c0 2.45-6.543 18.41-4.083 22.907 2.45 4.507 6.941 10.233 4.494 11.871z" cursor="pointer" fill="#808080" stroke="#fff" stroke-linejoin="round" stroke-opacity=".8" _ngcontent-ng-c3022224118="" data-id="district-Polonnaruwa" data-toggle="popover" data-type="area"/>
</a>
<a _ngcontent-ng-c3022224118="">
<path class="area" d="m231.94 443.47s-3.822 2.178-5.453 3.269c-1.637 1.098-2.734 5.463-4.905 7.642-2.189 2.182-6.006-1.091-6.006-1.091l-2.416 10.165-0.323 1.292-8.177 4.911-1.089 8.189 3.271 3.272s-1.645 6.004-1.645 7.635c0 1.632 2.736 9.274 2.736 9.274l-3.272 1.088-2.733 4.37s-1.082 4.901-3.816 3.269c-2.728-1.633-1.09-6.003-0.54-9.273 0.544-3.266-6.545-10.354-9.272-11.992-2.726-1.647-9.815 4.355-9.815 4.355s0 5e-3 -0.014 0.02l-4.903-0.694-2.038-2.46-0.405-3.276 0.818-2.042 1.642-3.275-5.734-5.313 1.614-2.152 0.845-1.131 0.24-1.538 0.575-3.774-0.855-4.807-1.217-4.851-2.424-5.249 2.854 0.992 4.085-1.633 0.821-3.272 0.82-1.646 3.272-4.084 4.905 1.646 3.545-5.449 2.59-3.97 2.042-4.901 2.043-6.96 0.821-5.318-0.821-8.192 0.135-0.043 7.643-3.226-3.56-13.119-0.121-6.521-0.83-13.5-2.613-6.945-0.382-0.996-0.169-3.62-0.32-7.246 3.449-6.099c0.887-0.021 3.731 0.166 3.731 3.626 0 4.096 0.815 11.456 4.901 11.456 4.096 0 16.373-9.003 19.644-6.544 3.271 2.452 2.453 7.359 2.453 7.359s-0.816 21.284 0.817 24.556c1.633 3.271 6.819 7.37 7.921 9.815l-14.734 15.823-4.919-0.548-3.27 3.816 4.917 4.37 1.634 7.09s4.899 0 10.91 1.639c5.993 1.638 1.097 15.811 1.097 15.811z" cursor="pointer" fill="#808080" stroke="#fff" stroke-linejoin="round" stroke-opacity=".8" _ngcontent-ng-c3022224118="" data-id="district-Badulla" data-toggle="popover" data-type="area"/>
</a>
<a _ngcontent-ng-c3022224118="">
<path class="area" d="m289.25 431.47s-1.104 55.648-1.104 58.919c0 1.608-1.093 19.636-1.093 19.636s-3.819 2.731-7.088 4.369c-3.27 1.634-7.635 3.266-8.733 5.454-1.091 2.166-4.365 7.63-8.736 9.809-4.347 2.18-24.54 8.736-24.54 8.736s-6.004 2.724-8.192 1.639c-2.177-1.1-6.545-10.362-10.354-10.914-3.83-0.543-18.001 0.536-19.104 2.729-1.09 2.186-1.09 5.998-2.728 6.557-1.639 0.534-12.007 5.988-12.007 5.988s-10.911-10.359-10.911-13.088c0-1.809-1.673-7.922-2.65-12.95-0.49-2.555-0.805-4.842-0.62-6.135 0.071-0.477 0.23-1.179 0.461-2.051 1.578-5.996 6.41-19.717 6.619-20.302 0.011-0.01 0.011-0.024 0.011-0.024s7.086-5.999 9.82-4.355c2.719 1.626 9.814 8.716 9.273 11.982-0.555 3.272-2.189 7.643 0.535 9.276 2.729 1.634 3.82-3.272 3.82-3.272l2.73-4.355 3.269-1.09s-2.728-7.638-2.728-9.274c0-1.634 1.642-7.637 1.642-7.637l-3.27-3.272 1.09-8.186 8.177-4.908 2.728-11.455s3.82 3.277 6.004 1.084c2.179-2.173 3.27-6.543 4.911-7.636 1.634-1.085 5.448-3.269 5.448-3.269h6e-3s4.897-14.18-1.09-15.817c-6.009-1.64-10.911-1.64-10.911-1.64l-0.295-1.27-1.338-5.818-4.913-4.373 3.271-3.816 4.918 0.549 14.725-15.82s3.813 3.817 5.995 3.817c2.178 0 4.366-1.638 4.366-1.638l-0.551-7.629s3.271-4.369 6.005-6.553c2.715-2.182 3.269-5.454 3.269-5.454s15.278-10.363 15.818-7.642c0.551 2.732 0 13.646 0.551 15.828 0.545 2.174 8.191 22.908 8.191 22.908s-6.936 4.069-7.766 7.642c-0.121 0.566-0.099 1.11 0.119 1.632 1.637 3.822 3.271 8.728 3.271 8.728l13.679 4.361z" cursor="pointer" fill="#808080" stroke="#fff" stroke-linejoin="round" stroke-opacity=".8" _ngcontent-ng-c3022224118="" data-id="district-Monaragala" data-toggle="popover" data-type="area"/>
</a>
<a _ngcontent-ng-c3022224118="">
<path class="area" d="m187.19 555.34s-4.898-1e-3 -7.626-1.091c-2.733-1.085-9.826-1.631-11.464-2.188-1.634-0.549-3.816-0.549-3.816-0.549s-16.363-8.181-18.001-7.627c-0.222 0.072-0.604 0.39-1.085 0.902 0.054-0.249 0.109-0.535 0.154-0.845 0.518-2.872 1.035-7.695-1.257-7.695-3.267 0-9.003-0.817-9.003-0.817l1.638-6.553-17.185 6.553-23.877-12.837 1.793-0.26-1.635-4.913-7.373-8.999 1.479-7.836 0.572-2.401-11.866-5.313-2.465-5.729-3.271-7.369-0.577-2.531-0.871-3.854-0.599-2.628-0.771-6.139 0.953-0.172 3.503-0.636-2.455-6.561-1.347-6.172 6.661-2.814-0.01-0.056c1.788 0.813 6.013 2.784 6.97 3.736 1.226 1.234 6.544 7.369 6.544 7.369l7.777 1.644h5e-3s8.182 0 12.683 0.816c4.497 0.816 8.999 2.449 8.999 2.449s0.159 0.255 0.413 0.655c0.79 1.183 2.56 3.652 4.088 4.255 0.909 0.369 3.059 0.736 5.142 1.027 2.582 0.358 5.082 0.611 5.082 0.611l6.961 2.872s12.675 0 15.139-0.815c2.455-0.821 11.856-2.454 11.856-2.454l0.39 0.295-1.615 2.146 5.732 5.317-1.639 3.272-0.815 2.047 0.41 3.27 2.043 2.46 4.9 0.695c-0.206 0.583-5.042 14.313-6.619 20.297l-0.463-0.135 0.463 0.135c-0.23 0.872-0.39 1.581-0.463 2.052-0.184 1.288 0.132 3.575 0.622 6.141 0.977 5.026 2.65 11.139 2.65 12.955 0 2.723 10.909 13.082 10.909 13.082l1.637 10.936z" cursor="pointer" fill="#808080" stroke="#fff" stroke-linejoin="round" stroke-opacity=".8" _ngcontent-ng-c3022224118="" data-id="district-Ratnapura" data-toggle="popover" data-type="area"/>
</a>
<a _ngcontent-ng-c3022224118="">
<path class="area" d="m130.6 409.42-0.817 2.058-5.014 1.798v7e-3l-5.223 1.876-4.084 1.637-3.499 1.424 1.249 1.05v-5e-3l1.433 1.211 2.859 6.558 1.226 4.089-6.953 6.539v4.097l1.452 5.672 3.816 4.366 3.78 3.466 0.064 2.929-0.109 6.711c-0.258-0.399-0.422-0.649-0.422-0.649s-4.496-1.638-8.994-2.456c-4.492-0.821-12.683-0.821-12.683-0.821l-7.778-1.637s-5.318-6.148-6.54-7.379c-0.957-0.957-5.185-2.92-6.969-3.735l-1.37-5.429h-5e-3l-0.249-0.994-1.243-2.237-5.718-1.106-0.345-0.908 1.738-0.665-0.11-0.271 0.672-5.483-2.141-7.167 2.531-4.655 2.152-0.901h4e-3l-4.906-6.14 3.273-5.321 1.638-3.682 2.863-7.776 11.789-4.23 4.175-1.492s1.221-0.922 2.555-2.049c1.325-1.122 2.759-2.453 3.163-3.269 0.413-0.813 2.05-2.868 3.585-4.706 1.529-1.85 2.958-3.486 2.958-3.486l3.036 1.528 4.125 4.391 1.589 1.704 2.921 4.406 1.366 0.425h5e-3l3.335 1.043 4.506 9.003 0.409 3.271 4.905 7.39z" cursor="pointer" fill="#808080" stroke="#fff" stroke-linejoin="round" stroke-opacity=".8" _ngcontent-ng-c3022224118="" data-id="district-Kegalle" data-toggle="popover" data-type="area"/>
</a>
</svg>
